<svg width="134" height="50" viewBox="0 0 134 50" fill="none" xmlns="http://www.w3.org/2000/svg">
<path d="M71.428 16.7702L71.338 17.8502C71.062 17.8262 70.762 17.8142 70.438 17.8142C70.126 17.8142 69.862 17.8202 69.646 17.8322C69.478 19.1522 69.37 20.5862 69.322 22.1342H68.062C67.99 21.8222 67.954 21.4082 67.954 20.8922C67.954 20.3762 67.966 19.9322 67.99 19.5602C68.026 19.1762 68.068 18.7982 68.116 18.4262C68.164 18.0542 68.188 17.8382 68.188 17.7782C68.02 17.7662 67.624 17.7602 67 17.7602C66.376 17.7602 65.944 17.7722 65.704 17.7962C64.312 19.6682 63.028 21.0902 61.852 22.0622C60.676 23.0222 59.5 23.5022 58.324 23.5022C57.748 23.5022 57.268 23.3282 56.884 22.9802C56.488 22.6322 56.29 22.1702 56.29 21.5942C56.29 20.5022 57.118 19.5062 58.774 18.6062C60.442 17.7062 62.596 17.1002 65.236 16.7882C65.548 16.3082 66.13 15.5702 66.982 14.5742C67.834 13.5662 68.674 12.6902 69.502 11.9462C69.862 11.1062 70.144 10.5242 70.348 10.2002C70.564 9.86415 70.774 9.69615 70.978 9.69615C71.182 9.69615 71.35 9.77415 71.482 9.93015C71.614 10.0862 71.68 10.2902 71.68 10.5422C71.68 10.7822 71.542 11.1422 71.266 11.6222C71.002 12.0902 70.726 12.8222 70.438 13.8182C70.15 14.8022 69.952 15.7322 69.844 16.6082C70.468 16.6082 70.996 16.6622 71.428 16.7702ZM62.248 20.5322C63.244 19.5842 63.994 18.6842 64.498 17.8322C62.482 17.9522 60.922 18.3302 59.818 18.9662C58.726 19.6022 58.18 20.2802 58.18 21.0002C58.18 21.3122 58.282 21.5582 58.486 21.7382C58.702 21.9182 58.984 22.0082 59.332 22.0082C60.268 22.0082 61.24 21.5162 62.248 20.5322ZM68.404 16.6082C68.488 16.2002 68.596 15.6902 68.728 15.0782C68.872 14.4542 68.956 14.0882 68.98 13.9802C68.404 14.5322 68.002 14.9402 67.774 15.2042C67.546 15.4562 67.144 15.9482 66.568 16.6802C66.772 16.6682 67.018 16.6622 67.306 16.6622C67.606 16.6502 67.852 16.6382 68.044 16.6262C68.236 16.6142 68.356 16.6082 68.404 16.6082ZM80.6087 20.4062L80.9867 20.7122C80.5787 21.3482 80.2247 21.8102 79.9247 22.0982C79.6367 22.3742 79.3127 22.5122 78.9527 22.5122C78.5927 22.5122 78.2987 22.3682 78.0707 22.0802C77.8427 21.7922 77.7287 21.4322 77.7287 21.0002C77.7287 20.1602 78.2807 18.3542 79.3847 15.5822C80.4887 12.7982 81.6227 10.3502 82.7867 8.23816L83.5787 8.67015C82.4027 10.9502 81.3407 13.2182 80.3927 15.4742C79.4447 17.7182 78.9707 19.3322 78.9707 20.3162C78.9707 20.8802 79.1807 21.1622 79.6007 21.1622C79.9367 21.1622 80.2727 20.9102 80.6087 20.4062ZM93.1274 20.0102L93.5414 20.3342C93.1694 20.8502 92.6594 21.2822 92.0114 21.6302C91.3634 21.9662 90.7334 22.1342 90.1214 22.1342C89.5094 22.1342 89.0174 21.9542 88.6454 21.5942C88.2734 21.2342 88.0874 20.7602 88.0874 20.1722C88.0874 19.0682 88.6694 17.9822 89.8334 16.9142C91.0094 15.8462 92.1974 15.3122 93.3974 15.3122C94.1894 15.3122 94.5854 15.6242 94.5854 16.2482C94.5854 16.8962 94.1654 17.5502 93.3254 18.2102C92.4974 18.8702 91.3274 19.4702 89.8154 20.0102C89.9234 20.2862 90.0914 20.5022 90.3194 20.6582C90.5474 20.8142 90.7814 20.8922 91.0214 20.8922C91.5374 20.8922 92.2394 20.5982 93.1274 20.0102ZM89.7254 19.4702C90.6974 19.1342 91.5314 18.7142 92.2274 18.2102C92.9234 17.7062 93.2714 17.2442 93.2714 16.8242C93.2714 16.6682 93.2114 16.5302 93.0914 16.4102C92.9714 16.2902 92.8334 16.2302 92.6774 16.2302C92.1134 16.2302 91.5014 16.5842 90.8414 17.2922C90.1934 17.9882 89.8214 18.7142 89.7254 19.4702ZM103.709 19.1282C103.001 19.7642 102.047 20.8022 100.847 22.2422L100.343 21.8282C100.571 21.2762 101.549 20.1242 103.277 18.3722C102.821 17.2682 102.569 16.3622 102.521 15.6542L103.709 15.4382C103.769 15.5222 104.003 16.2482 104.411 17.6162C105.923 16.5362 106.997 15.8462 107.633 15.5462L107.975 16.0322C107.771 16.2002 107.411 16.4582 106.895 16.8062C105.515 17.7422 104.789 18.2462 104.717 18.3182C105.365 19.6982 106.139 20.8862 107.039 21.8822L106.193 22.4222C105.209 21.7022 104.381 20.6042 103.709 19.1282ZM117.413 14.5022C116.741 14.5022 116.405 14.2322 116.405 13.6922C116.405 13.3922 116.489 13.1402 116.657 12.9362C116.825 12.7322 117.041 12.6302 117.305 12.6302C117.569 12.6302 117.785 12.7082 117.953 12.8642C118.121 13.0202 118.205 13.2242 118.205 13.4762C118.205 13.7282 118.133 13.9622 117.989 14.1782C117.845 14.3942 117.653 14.5022 117.413 14.5022ZM117.179 19.8122L117.539 20.1182C117.251 20.6702 116.867 21.1442 116.387 21.5402C115.919 21.9242 115.493 22.1162 115.109 22.1162C114.437 22.1162 114.101 21.6482 114.101 20.7122C114.101 19.5482 114.581 18.0302 115.541 16.1582C115.757 15.7502 115.883 15.5102 115.919 15.4382L116.693 15.9062C116.441 16.3622 116.129 17.0882 115.757 18.0842C115.397 19.0802 115.217 19.7222 115.217 20.0102C115.217 20.2862 115.277 20.4842 115.397 20.6042C115.517 20.7242 115.661 20.7842 115.829 20.7842C116.153 20.7842 116.603 20.4602 117.179 19.8122ZM129.843 15.0962L129.681 15.7982C129.477 15.7742 129.213 15.7622 128.889 15.7622C127.689 15.7622 127.089 16.1582 127.089 16.9502C127.089 17.1182 127.329 17.6102 127.809 18.4262C128.301 19.2422 128.547 19.7882 128.547 20.0642C128.547 20.7122 128.325 21.2222 127.881 21.5942C127.449 21.9542 126.867 22.1342 126.135 22.1342C125.127 22.1342 124.317 21.5762 123.705 20.4602L124.389 19.9742C124.557 20.1062 124.737 20.2682 124.929 20.4602C125.121 20.6402 125.265 20.7662 125.361 20.8382C125.589 21.0422 125.841 21.1442 126.117 21.1442C126.393 21.1442 126.633 21.0482 126.837 20.8562C127.041 20.6522 127.143 20.4062 127.143 20.1182C127.143 19.8182 126.879 19.2662 126.351 18.4622C125.835 17.6582 125.577 17.0942 125.577 16.7702C125.577 16.1822 125.823 15.7322 126.315 15.4202C126.819 15.1082 127.473 14.9522 128.277 14.9522C129.093 14.9522 129.615 15.0002 129.843 15.0962ZM66.082 32.1442L63.508 32.0902C60.88 32.0902 59.566 32.6662 59.566 33.8182C59.566 34.1182 59.674 34.3642 59.89 34.5562C60.118 34.7362 60.454 34.8262 60.898 34.8262C61.342 34.8262 61.924 34.6222 62.644 34.2142L62.914 34.6822C62.542 35.0782 62.122 35.3902 61.654 35.6182C61.186 35.8462 60.718 35.9602 60.25 35.9602C59.782 35.9602 59.38 35.8042 59.044 35.4922C58.708 35.1802 58.54 34.7902 58.54 34.3222C58.54 33.3742 59.05 32.5462 60.07 31.8382C61.102 31.1302 62.494 30.7762 64.246 30.7762C64.39 30.7762 64.906 30.8002 65.794 30.8482C66.682 30.8962 67.384 30.9202 67.9 30.9202C68.416 30.9202 68.89 30.8422 69.322 30.6862C69.49 30.6382 69.592 30.6142 69.628 30.6142C69.796 30.6142 69.88 30.7222 69.88 30.9382C69.88 31.2502 69.604 31.5322 69.052 31.7842C68.512 32.0362 67.888 32.1622 67.18 32.1622C66.388 32.9302 65.692 34.2742 65.092 36.1942C64.504 38.1022 63.796 39.5602 62.968 40.5682C62.152 41.5642 61.18 42.0622 60.052 42.0622C59.608 42.0622 59.188 41.9182 58.792 41.6302L59.206 40.9462C59.35 41.0182 59.512 41.0842 59.692 41.1442L59.944 41.1802C60.004 41.1922 60.094 41.1982 60.214 41.1982C60.814 41.1982 61.348 40.9102 61.816 40.3342C62.296 39.7582 62.794 38.6722 63.31 37.0762C63.838 35.4682 64.246 34.4062 64.534 33.8902C64.834 33.3622 65.35 32.7802 66.082 32.1442ZM76.462 36.7882C76.774 37.3042 76.93 37.8742 76.93 38.4982C76.93 39.4702 76.594 40.3402 75.922 41.1082C75.25 41.8642 74.458 42.2422 73.546 42.2422C72.85 42.2422 72.304 42.0442 71.908 41.6482C71.524 41.2402 71.332 40.6822 71.332 39.9742C71.332 38.8342 71.776 37.8142 72.664 36.9142C73.552 36.0022 74.548 35.5462 75.652 35.5462C75.856 35.5462 76 35.5522 76.084 35.5642L76.138 36.1582C75.178 36.1582 74.38 36.4342 73.744 36.9862C73.108 37.5382 72.79 38.2462 72.79 39.1102C72.79 39.6262 72.916 40.0462 73.168 40.3702C73.42 40.6822 73.786 40.8382 74.266 40.8382C74.758 40.8382 75.148 40.6222 75.436 40.1902C75.724 39.7582 75.868 39.2542 75.868 38.6782C75.868 38.0902 75.754 37.5562 75.526 37.0762L76.462 36.7882ZM87.7309 35.7622C88.0309 35.7622 88.2769 35.8642 88.4689 36.0682C88.6609 36.2722 88.7569 36.5362 88.7569 36.8602C88.7569 37.5082 88.3849 38.1922 87.6409 38.9122L87.2089 38.5702C87.3769 38.1982 87.4609 37.9282 87.4609 37.7602C87.4609 37.4362 87.2809 37.2742 86.9209 37.2742C86.5609 37.2742 86.2189 37.5022 85.8949 37.9582C85.5709 38.4142 85.1869 39.1222 84.7429 40.0822C84.3109 41.0302 83.9809 41.7022 83.7529 42.0982L82.7269 41.6482C83.3869 40.1482 83.7649 39.2662 83.8609 39.0022C84.1849 38.0662 84.3469 36.8782 84.3469 35.4382L85.3549 35.1682C85.3189 35.9482 85.2649 36.5542 85.1929 36.9862C85.1209 37.4062 84.9469 38.0962 84.6709 39.0562C85.8829 36.8602 86.9029 35.7622 87.7309 35.7622ZM98.1614 34.5022C97.4894 34.5022 97.1534 34.2322 97.1534 33.6922C97.1534 33.3922 97.2374 33.1402 97.4054 32.9362C97.5734 32.7322 97.7894 32.6302 98.0534 32.6302C98.3174 32.6302 98.5334 32.7082 98.7014 32.8642C98.8694 33.0202 98.9534 33.2242 98.9534 33.4762C98.9534 33.7282 98.8814 33.9622 98.7374 34.1782C98.5934 34.3942 98.4014 34.5022 98.1614 34.5022ZM97.9274 39.8122L98.2874 40.1182C97.9994 40.6702 97.6154 41.1442 97.1354 41.5402C96.6674 41.9242 96.2414 42.1162 95.8574 42.1162C95.1854 42.1162 94.8494 41.6482 94.8494 40.7122C94.8494 39.5482 95.3294 38.0302 96.2894 36.1582C96.5054 35.7502 96.6314 35.5102 96.6674 35.4382L97.4414 35.9062C97.1894 36.3622 96.8774 37.0882 96.5054 38.0842C96.1454 39.0802 95.9654 39.7222 95.9654 40.0102C95.9654 40.2862 96.0254 40.4842 96.1454 40.6042C96.2654 40.7242 96.4094 40.7842 96.5774 40.7842C96.9014 40.7842 97.3514 40.4602 97.9274 39.8122ZM107.874 37.1842C108.45 36.5962 108.954 36.1942 109.386 35.9782C109.83 35.7502 110.244 35.6362 110.628 35.6362C111.024 35.6362 111.348 35.7742 111.6 36.0502C111.864 36.3142 111.996 36.6622 111.996 37.0942C111.996 38.2102 111.528 39.3862 110.592 40.6222C109.656 41.8462 108.648 42.4582 107.568 42.4582C107.244 42.4582 106.938 42.3982 106.65 42.2782L107.082 41.4862C107.274 41.5342 107.424 41.5582 107.532 41.5582C108.264 41.5582 108.93 41.1502 109.53 40.3342C110.13 39.5182 110.43 38.7142 110.43 37.9222C110.43 37.6702 110.346 37.4662 110.178 37.3102C110.022 37.1422 109.818 37.0582 109.566 37.0582C109.014 37.0582 108.366 37.5022 107.622 38.3902C106.89 39.2782 106.248 40.4362 105.696 41.8642L104.598 41.4142C104.958 39.5782 105.678 37.3402 106.758 34.7002C107.838 32.0602 108.738 30.1942 109.458 29.1022L110.376 29.4262C109.584 30.9022 108.738 32.7322 107.838 34.9162C106.95 37.1002 106.428 38.5822 106.272 39.3622C106.764 38.4982 107.298 37.7722 107.874 37.1842ZM121.53 34.5022C120.858 34.5022 120.522 34.2322 120.522 33.6922C120.522 33.3922 120.606 33.1402 120.774 32.9362C120.942 32.7322 121.158 32.6302 121.422 32.6302C121.686 32.6302 121.902 32.7082 122.07 32.8642C122.238 33.0202 122.322 33.2242 122.322 33.4762C122.322 33.7282 122.25 33.9622 122.106 34.1782C121.962 34.3942 121.77 34.5022 121.53 34.5022ZM121.296 39.8122L121.656 40.1182C121.368 40.6702 120.984 41.1442 120.504 41.5402C120.036 41.9242 119.61 42.1162 119.226 42.1162C118.554 42.1162 118.218 41.6482 118.218 40.7122C118.218 39.5482 118.698 38.0302 119.658 36.1582C119.874 35.7502 120 35.5102 120.036 35.4382L120.81 35.9062C120.558 36.3622 120.246 37.0882 119.874 38.0842C119.514 39.0802 119.334 39.7222 119.334 40.0102C119.334 40.2862 119.394 40.4842 119.514 40.6042C119.634 40.7242 119.778 40.7842 119.946 40.7842C120.27 40.7842 120.72 40.4602 121.296 39.8122ZM133.204 36.7882C133.516 37.3042 133.672 37.8742 133.672 38.4982C133.672 39.4702 133.336 40.3402 132.664 41.1082C131.992 41.8642 131.2 42.2422 130.288 42.2422C129.592 42.2422 129.046 42.0442 128.65 41.6482C128.266 41.2402 128.074 40.6822 128.074 39.9742C128.074 38.8342 128.518 37.8142 129.406 36.9142C130.294 36.0022 131.29 35.5462 132.394 35.5462C132.598 35.5462 132.742 35.5522 132.826 35.5642L132.88 36.1582C131.92 36.1582 131.122 36.4342 130.486 36.9862C129.85 37.5382 129.532 38.2462 129.532 39.1102C129.532 39.6262 129.658 40.0462 129.91 40.3702C130.162 40.6822 130.528 40.8382 131.008 40.8382C131.5 40.8382 131.89 40.6222 132.178 40.1902C132.466 39.7582 132.61 39.2542 132.61 38.6782C132.61 38.0902 132.496 37.5562 132.268 37.0762L133.204 36.7882Z" fill="#192A56"/>
<path d="M2.0827 33.6531C3.61969 39.7307 10.3912 47.4848 25.1813 29.8807L43.4865 7.5666L32.3259 31.9594C29.0858 38.0974 27.0123 47.2534 44.6388 34.7741C62.2654 22.2949 32.0031 27.0029 14.6686 30.9168C11.7623 31.6068 7.81136 31.8904 15.258 27.5054" stroke="#192A56" stroke-width="2" stroke-miterlimit="3.99933" stroke-linecap="round" stroke-linejoin="round"/>
</svg>
