<svg width="158" height="91" viewBox="0 0 158 91" fill="none" xmlns="http://www.w3.org/2000/svg">
<path d="M104.904 32.848L104.784 34.288C104.416 34.256 104.016 34.24 103.584 34.24C103.168 34.24 102.816 34.248 102.528 34.264C102.304 36.024 102.16 37.936 102.096 40H100.416C100.32 39.584 100.272 39.032 100.272 38.344C100.272 37.656 100.288 37.064 100.32 36.568C100.368 36.056 100.424 35.552 100.488 35.056C100.552 34.56 100.584 34.272 100.584 34.192C100.36 34.176 99.832 34.168 99 34.168C98.168 34.168 97.592 34.184 97.272 34.216C95.416 36.712 93.704 38.608 92.136 39.904C90.568 41.184 89 41.824 87.432 41.824C86.664 41.824 86.024 41.592 85.512 41.128C84.984 40.664 84.72 40.048 84.72 39.28C84.72 37.824 85.824 36.496 88.032 35.296C90.256 34.096 93.128 33.288 96.648 32.872C97.064 32.232 97.84 31.248 98.976 29.92C100.112 28.576 101.232 27.408 102.336 26.416C102.816 25.296 103.192 24.52 103.464 24.088C103.752 23.64 104.032 23.416 104.304 23.416C104.576 23.416 104.8 23.52 104.976 23.728C105.152 23.936 105.24 24.208 105.24 24.544C105.24 24.864 105.056 25.344 104.688 25.984C104.336 26.608 103.968 27.584 103.584 28.912C103.2 30.224 102.936 31.464 102.792 32.632C103.624 32.632 104.328 32.704 104.904 32.848ZM92.664 37.864C93.992 36.6 94.992 35.4 95.664 34.264C92.976 34.424 90.896 34.928 89.424 35.776C87.968 36.624 87.24 37.528 87.24 38.488C87.24 38.904 87.376 39.232 87.648 39.472C87.936 39.712 88.312 39.832 88.776 39.832C90.024 39.832 91.32 39.176 92.664 37.864ZM100.872 32.632C100.984 32.088 101.128 31.408 101.304 30.592C101.496 29.76 101.608 29.272 101.64 29.128C100.872 29.864 100.336 30.408 100.032 30.76C99.728 31.096 99.192 31.752 98.424 32.728C98.696 32.712 99.024 32.704 99.408 32.704C99.808 32.688 100.136 32.672 100.392 32.656C100.648 32.64 100.808 32.632 100.872 32.632ZM109.945 37.696L110.449 38.104C109.905 38.952 109.433 39.568 109.033 39.952C108.649 40.32 108.217 40.504 107.737 40.504C107.257 40.504 106.865 40.312 106.561 39.928C106.257 39.544 106.105 39.064 106.105 38.488C106.105 37.368 106.841 34.96 108.313 31.264C109.785 27.552 111.297 24.288 112.849 21.472L113.905 22.048C112.337 25.088 110.921 28.112 109.657 31.12C108.393 34.112 107.761 36.264 107.761 37.576C107.761 38.328 108.041 38.704 108.601 38.704C109.049 38.704 109.497 38.368 109.945 37.696ZM119.437 37.168L119.989 37.6C119.493 38.288 118.813 38.864 117.949 39.328C117.085 39.776 116.245 40 115.429 40C114.613 40 113.957 39.76 113.461 39.28C112.965 38.8 112.717 38.168 112.717 37.384C112.717 35.912 113.493 34.464 115.045 33.04C116.613 31.616 118.197 30.904 119.797 30.904C120.853 30.904 121.381 31.32 121.381 32.152C121.381 33.016 120.821 33.888 119.701 34.768C118.597 35.648 117.037 36.448 115.021 37.168C115.165 37.536 115.389 37.824 115.693 38.032C115.997 38.24 116.309 38.344 116.629 38.344C117.317 38.344 118.253 37.952 119.437 37.168ZM114.901 36.448C116.197 36 117.309 35.44 118.237 34.768C119.165 34.096 119.629 33.48 119.629 32.92C119.629 32.712 119.549 32.528 119.389 32.368C119.229 32.208 119.045 32.128 118.837 32.128C118.085 32.128 117.269 32.6 116.389 33.544C115.525 34.472 115.029 35.44 114.901 36.448ZM126.345 35.992C125.401 36.84 124.129 38.224 122.529 40.144L121.857 39.592C122.161 38.856 123.465 37.32 125.769 34.984C125.161 33.512 124.825 32.304 124.761 31.36L126.345 31.072C126.425 31.184 126.737 32.152 127.281 33.976C129.297 32.536 130.729 31.616 131.577 31.216L132.033 31.864C131.761 32.088 131.281 32.432 130.593 32.896C128.753 34.144 127.785 34.816 127.689 34.912C128.553 36.752 129.585 38.336 130.785 39.664L129.657 40.384C128.345 39.424 127.241 37.96 126.345 35.992ZM137.417 29.824C136.521 29.824 136.073 29.464 136.073 28.744C136.073 28.344 136.185 28.008 136.409 27.736C136.633 27.464 136.921 27.328 137.273 27.328C137.625 27.328 137.913 27.432 138.137 27.64C138.361 27.848 138.473 28.12 138.473 28.456C138.473 28.792 138.377 29.104 138.185 29.392C137.993 29.68 137.737 29.824 137.417 29.824ZM137.105 36.904L137.585 37.312C137.201 38.048 136.689 38.68 136.049 39.208C135.425 39.72 134.857 39.976 134.345 39.976C133.449 39.976 133.001 39.352 133.001 38.104C133.001 36.552 133.641 34.528 134.921 32.032C135.209 31.488 135.377 31.168 135.425 31.072L136.457 31.696C136.121 32.304 135.705 33.272 135.209 34.6C134.729 35.928 134.489 36.784 134.489 37.168C134.489 37.536 134.569 37.8 134.729 37.96C134.889 38.12 135.081 38.2 135.305 38.2C135.737 38.2 136.337 37.768 137.105 36.904ZM146.791 30.616L146.575 31.552C146.303 31.52 145.951 31.504 145.519 31.504C143.919 31.504 143.119 32.032 143.119 33.088C143.119 33.312 143.439 33.968 144.079 35.056C144.735 36.144 145.063 36.872 145.063 37.24C145.063 38.104 144.767 38.784 144.175 39.28C143.599 39.76 142.823 40 141.847 40C140.503 40 139.423 39.256 138.607 37.768L139.519 37.12C139.743 37.296 139.983 37.512 140.239 37.768C140.495 38.008 140.687 38.176 140.815 38.272C141.119 38.544 141.455 38.68 141.823 38.68C142.191 38.68 142.511 38.552 142.783 38.296C143.055 38.024 143.191 37.696 143.191 37.312C143.191 36.912 142.839 36.176 142.135 35.104C141.447 34.032 141.103 33.28 141.103 32.848C141.103 32.064 141.431 31.464 142.087 31.048C142.759 30.632 143.631 30.424 144.703 30.424C145.791 30.424 146.487 30.488 146.791 30.616ZM97.776 48.68L94.344 48.608C90.84 48.608 89.088 49.376 89.088 50.912C89.088 51.312 89.232 51.64 89.52 51.896C89.824 52.136 90.272 52.256 90.864 52.256C91.456 52.256 92.232 51.984 93.192 51.44L93.552 52.064C93.056 52.592 92.496 53.008 91.872 53.312C91.248 53.616 90.624 53.768 90 53.768C89.376 53.768 88.84 53.56 88.392 53.144C87.944 52.728 87.72 52.208 87.72 51.584C87.72 50.32 88.4 49.216 89.76 48.272C91.136 47.328 92.992 46.856 95.328 46.856C95.52 46.856 96.208 46.888 97.392 46.952C98.576 47.016 99.512 47.048 100.2 47.048C100.888 47.048 101.52 46.944 102.096 46.736C102.32 46.672 102.456 46.64 102.504 46.64C102.728 46.64 102.84 46.784 102.84 47.072C102.84 47.488 102.472 47.864 101.736 48.2C101.016 48.536 100.184 48.704 99.24 48.704C98.184 49.728 97.256 51.52 96.456 54.08C95.672 56.624 94.728 58.568 93.624 59.912C92.536 61.24 91.24 61.904 89.736 61.904C89.144 61.904 88.584 61.712 88.056 61.328L88.608 60.416C88.8 60.512 89.016 60.6 89.256 60.68L89.592 60.728C89.672 60.744 89.792 60.752 89.952 60.752C90.752 60.752 91.464 60.368 92.088 59.6C92.728 58.832 93.392 57.384 94.08 55.256C94.784 53.112 95.328 51.696 95.712 51.008C96.112 50.304 96.8 49.528 97.776 48.68ZM104.416 54.872C104.832 55.56 105.04 56.32 105.04 57.152C105.04 58.448 104.592 59.608 103.696 60.632C102.8 61.64 101.744 62.144 100.528 62.144C99.5999 62.144 98.8719 61.88 98.3439 61.352C97.8319 60.808 97.5759 60.064 97.5759 59.12C97.5759 57.6 98.1679 56.24 99.3519 55.04C100.536 53.824 101.864 53.216 103.336 53.216C103.608 53.216 103.8 53.224 103.912 53.24L103.984 54.032C102.704 54.032 101.64 54.4 100.792 55.136C99.9439 55.872 99.5199 56.816 99.5199 57.968C99.5199 58.656 99.6879 59.216 100.024 59.648C100.36 60.064 100.848 60.272 101.488 60.272C102.144 60.272 102.664 59.984 103.048 59.408C103.432 58.832 103.624 58.16 103.624 57.392C103.624 56.608 103.472 55.896 103.168 55.256L104.416 54.872ZM112.241 53.504C112.641 53.504 112.969 53.64 113.225 53.912C113.481 54.184 113.609 54.536 113.609 54.968C113.609 55.832 113.113 56.744 112.121 57.704L111.545 57.248C111.769 56.752 111.881 56.392 111.881 56.168C111.881 55.736 111.641 55.52 111.161 55.52C110.681 55.52 110.225 55.824 109.793 56.432C109.361 57.04 108.849 57.984 108.257 59.264C107.681 60.528 107.241 61.424 106.937 61.952L105.569 61.352C106.449 59.352 106.953 58.176 107.081 57.824C107.513 56.576 107.729 54.992 107.729 53.072L109.073 52.712C109.025 53.752 108.953 54.56 108.857 55.136C108.761 55.696 108.529 56.616 108.161 57.896C109.777 54.968 111.137 53.504 112.241 53.504ZM118.948 51.824C118.052 51.824 117.604 51.464 117.604 50.744C117.604 50.344 117.716 50.008 117.94 49.736C118.164 49.464 118.452 49.328 118.804 49.328C119.156 49.328 119.444 49.432 119.668 49.64C119.892 49.848 120.004 50.12 120.004 50.456C120.004 50.792 119.908 51.104 119.716 51.392C119.524 51.68 119.268 51.824 118.948 51.824ZM118.636 58.904L119.116 59.312C118.732 60.048 118.22 60.68 117.58 61.208C116.956 61.72 116.388 61.976 115.876 61.976C114.98 61.976 114.532 61.352 114.532 60.104C114.532 58.552 115.172 56.528 116.452 54.032C116.74 53.488 116.908 53.168 116.956 53.072L117.988 53.696C117.652 54.304 117.236 55.272 116.74 56.6C116.26 57.928 116.02 58.784 116.02 59.168C116.02 59.536 116.1 59.8 116.26 59.96C116.42 60.12 116.612 60.2 116.836 60.2C117.268 60.2 117.868 59.768 118.636 58.904ZM124.698 55.4C125.466 54.616 126.138 54.08 126.714 53.792C127.306 53.488 127.858 53.336 128.37 53.336C128.898 53.336 129.33 53.52 129.666 53.888C130.018 54.24 130.194 54.704 130.194 55.28C130.194 56.768 129.57 58.336 128.322 59.984C127.074 61.616 125.73 62.432 124.29 62.432C123.858 62.432 123.45 62.352 123.066 62.192L123.642 61.136C123.898 61.2 124.098 61.232 124.242 61.232C125.218 61.232 126.106 60.688 126.906 59.6C127.706 58.512 128.106 57.44 128.106 56.384C128.106 56.048 127.994 55.776 127.77 55.568C127.562 55.344 127.29 55.232 126.954 55.232C126.218 55.232 125.354 55.824 124.362 57.008C123.386 58.192 122.53 59.736 121.794 61.64L120.33 61.04C120.81 58.592 121.77 55.608 123.21 52.088C124.65 48.568 125.85 46.08 126.81 44.624L128.034 45.056C126.978 47.024 125.85 49.464 124.65 52.376C123.466 55.288 122.77 57.264 122.562 58.304C123.218 57.152 123.93 56.184 124.698 55.4ZM135.706 51.824C134.81 51.824 134.362 51.464 134.362 50.744C134.362 50.344 134.474 50.008 134.698 49.736C134.922 49.464 135.21 49.328 135.562 49.328C135.914 49.328 136.202 49.432 136.426 49.64C136.65 49.848 136.762 50.12 136.762 50.456C136.762 50.792 136.666 51.104 136.474 51.392C136.282 51.68 136.026 51.824 135.706 51.824ZM135.394 58.904L135.874 59.312C135.49 60.048 134.978 60.68 134.338 61.208C133.714 61.72 133.146 61.976 132.634 61.976C131.738 61.976 131.29 61.352 131.29 60.104C131.29 58.552 131.93 56.528 133.21 54.032C133.498 53.488 133.666 53.168 133.714 53.072L134.746 53.696C134.41 54.304 133.994 55.272 133.498 56.6C133.018 57.928 132.778 58.784 132.778 59.168C132.778 59.536 132.858 59.8 133.018 59.96C133.178 60.12 133.37 60.2 133.594 60.2C134.026 60.2 134.626 59.768 135.394 58.904ZM144.072 54.872C144.488 55.56 144.696 56.32 144.696 57.152C144.696 58.448 144.248 59.608 143.352 60.632C142.456 61.64 141.4 62.144 140.184 62.144C139.256 62.144 138.528 61.88 138 61.352C137.488 60.808 137.232 60.064 137.232 59.12C137.232 57.6 137.824 56.24 139.008 55.04C140.192 53.824 141.52 53.216 142.992 53.216C143.264 53.216 143.456 53.224 143.568 53.24L143.64 54.032C142.36 54.032 141.296 54.4 140.448 55.136C139.6 55.872 139.176 56.816 139.176 57.968C139.176 58.656 139.344 59.216 139.68 59.648C140.016 60.064 140.504 60.272 141.144 60.272C141.8 60.272 142.32 59.984 142.704 59.408C143.088 58.832 143.28 58.16 143.28 57.392C143.28 56.608 143.128 55.896 142.824 55.256L144.072 54.872Z" fill="#192A56"/>
<g filter="url(#filter0_d_127_20)">
<path d="M6.01778 61.2031C8.24483 72.256 18.0566 86.358 39.487 54.3424L66.0108 13.761L49.8393 58.1229C45.1445 69.2856 42.14 85.9372 67.6804 63.2418C93.2208 40.5465 49.3716 49.1087 24.2544 56.2268C20.0432 57.4816 14.3184 57.9974 25.1084 50.0225" stroke="#192A56" stroke-width="4" stroke-miterlimit="3.99933" stroke-linecap="round" stroke-linejoin="round"/>
</g>
<defs>
<filter id="filter0_d_127_20" x="0.0177612" y="11.7604" width="81.3919" height="72.7876" filterUnits="userSpaceOnUse" color-interpolation-filters="sRGB">
<feFlood flood-opacity="0" result="BackgroundImageFix"/>
<feColorMatrix in="SourceAlpha" type="matrix" values="0 0 0 0 0 0 0 0 0 0 0 0 0 0 0 0 0 0 127 0" result="hardAlpha"/>
<feOffset dy="4"/>
<feGaussianBlur stdDeviation="2"/>
<feColorMatrix type="matrix" values="0 0 0 0 0 0 0 0 0 0 0 0 0 0 0 0 0 0 0.25 0"/>
<feBlend mode="normal" in2="BackgroundImageFix" result="effect1_dropShadow_127_20"/>
<feBlend mode="normal" in="SourceGraphic" in2="effect1_dropShadow_127_20" result="shape"/>
</filter>
</defs>
</svg>
